<?xml version="1.0" encoding="utf-8"?>
<!-- Generator: Adobe Illustrator 26.0.1, SVG Export Plug-In . SVG Version: 6.00 Build 0)  -->
<svg version="1.1" id="Layer_1" xmlns="http://www.w3.org/2000/svg" xmlns:xlink="http://www.w3.org/1999/xlink" x="0px" y="0px"
	 viewBox="0 0 267 43" style="enable-background:new 0 0 267 43;" xml:space="preserve">
<style type="text/css">
	.st0{fill:#FFFFFF;}
	.st1{font-family:'Montserrat';}
	.st2{font-size:36px;}
	.st3{fill:#AA0047;}
	.st4{fill:url(#SVGID_1_);}
</style>
<g>
	<text transform="matrix(1 0 0 1 36.6709 33.6147)"><tspan x="0" y="0" class="st0 st1 st2">TRAIN IN </tspan><tspan x="176.1" y="0" class="st3 st1 st2">XR</tspan></text>
	<radialGradient id="SVGID_1_" cx="16.9043" cy="21.1878" r="11.7895" gradientUnits="userSpaceOnUse">
		<stop  offset="2.290950e-07" style="stop-color:#AA0047"/>
		<stop  offset="2.049087e-02" style="stop-color:#AE0B4F"/>
		<stop  offset="0.1353" style="stop-color:#C04378"/>
		<stop  offset="0.2536" style="stop-color:#D1759C"/>
		<stop  offset="0.3728" style="stop-color:#DFA0BA"/>
		<stop  offset="0.493" style="stop-color:#EBC2D3"/>
		<stop  offset="0.6147" style="stop-color:#F4DDE6"/>
		<stop  offset="0.7382" style="stop-color:#FAF0F4"/>
		<stop  offset="0.865" style="stop-color:#FEFBFC"/>
		<stop  offset="1" style="stop-color:#FFFFFF"/>
	</radialGradient>
	<path class="st4" d="M28,26.2V16.2c0-0.8-0.5-1.6-1.2-2.1l-8.7-5c-0.7-0.4-1.6-0.4-2.4,0l-8.7,5c-0.7,0.4-1.2,1.2-1.2,2.1v10.1
		c0,0.8,0.5,1.6,1.2,2.1l8.7,5c0.7,0.4,1.6,0.4,2.4,0l8.7-5C27.5,27.9,28,27.1,28,26.2z"/>
</g>
</svg>
