<svg id="Layer_1" data-name="Layer 1" xmlns="http://www.w3.org/2000/svg" 
xmlns:xlink="http://www.w3.org/1999/xlink" 
viewBox="0 0 257.41 40.14"><defs><style>.cls-1{font-size:36px;font-family:Montserrat-SemiBold, Montserrat;font-weight:600;}.cls-2,.cls-3{fill:#aa0047;}.cls-2{letter-spacing:-0.02em;}.cls-4{fill:url(#radial-gradient);}</style><radialGradient id="radial-gradient" cx="16.9" cy="21.19" r="11.79" gradientUnits="userSpaceOnUse"><stop offset="0" stop-color="#fff"/><stop offset="0.02" stop-color="#fbf4f7"/><stop offset="0.14" stop-color="#e9bcce"/><stop offset="0.25" stop-color="#d88aaa"/><stop offset="0.37" stop-color="#ca5f8c"/><stop offset="0.49" stop-color="#be3d73"/><stop offset="0.61" stop-color="#b52260"/><stop offset="0.74" stop-color="#af0f52"/><stop offset="0.87" stop-color="#ab044a"/><stop offset="1" stop-color="#aa0047"/></radialGradient></defs><text class="cls-1" transform="translate(30.86 30.6)">TRAIN IN <tspan class="cls-2" x="176.11" y="0">X</tspan><tspan class="cls-3" x="200.23" y="0">R</tspan></text><path class="cls-4" d="M28,26.22V16.15a2.35,2.35,0,0,0-1.19-2l-8.72-5a2.39,2.39,0,0,0-2.37,0L7,14.1a2.35,2.35,0,0,0-1.19,2V26.22A2.36,2.36,0,0,0,7,28.28l8.72,5a2.34,2.34,0,0,0,2.37,0l8.72-5A2.36,2.36,0,0,0,28,26.22Z" transform="translate(-5.81 -3.02)"/></svg>