<svg id="Layer_1" data-name="Layer 1" xmlns="http://www.w3.org/2000/svg" xmlns:xlink="http://www.w3.org/1999/xlink" viewBox="0 0 256 25.21"><defs><style>.cls-1{fill:#fff;}.cls-2{fill:#aa0047;}.cls-3{fill:url(#radial-gradient);}</style><radialGradient id="radial-gradient" cx="11.1" cy="12.77" r="11.79" gradientUnits="userSpaceOnUse"><stop offset="0" stop-color="#fff"/><stop offset="0.02" stop-color="#fbf4f7"/><stop offset="0.14" stop-color="#e9bcce"/><stop offset="0.25" stop-color="#d88aaa"/><stop offset="0.37" stop-color="#ca5f8c"/><stop offset="0.49" stop-color="#be3d73"/><stop offset="0.61" stop-color="#b52260"/><stop offset="0.74" stop-color="#af0f52"/><stop offset="0.87" stop-color="#ab044a"/><stop offset="1" stop-color="#aa0047"/></radialGradient></defs><path class="cls-1" d="M39.36,4H31V0H52.39V4H44V25.2H39.36Z"/><path class="cls-1" d="M72.4,25.2l-5.14-7.38c-.33,0-.65,0-1,0H60.6V25.2H55.92V0H66.28C72.91,0,77,3.38,77,9a8.05,8.05,0,0,1-5.36,8l5.79,8.28ZM66.07,4H60.6V14h5.47c4.1,0,6.23-1.87,6.23-5S70.17,4,66.07,4Z"/><path class="cls-1" d="M98.58,19.37H86L83.49,25.2H78.67L90,0h4.61L106,25.2h-4.9ZM97,15.69l-4.75-11-4.72,11Z"/><path class="cls-1" d="M109.2,0h4.68V25.2H109.2Z"/><path class="cls-1" d="M143.07,0V25.2h-3.85L125.32,8.13V25.2h-4.64V0h3.85l13.9,17.06V0Z"/><path class="cls-1" d="M159.78,0h4.68V25.2h-4.68Z"/><path class="cls-1" d="M193.65,0V25.2H189.8L175.9,8.13V25.2h-4.64V0h3.85L189,17.06V0Z"/><path class="cls-2" d="M226.23,25.2l-6.84-9.58-6.77,9.58h-5.33l9.36-12.85L207.8,0h5.29l6.44,9,6.37-9H231l-8.82,12.17,9.47,13Z"/><path class="cls-2" d="M251,25.2l-5.15-7.38c-.32,0-.65,0-1,0h-5.69V25.2h-4.68V0h10.37c6.62,0,10.73,3.38,10.73,9a8.06,8.06,0,0,1-5.37,8L256,25.2ZM244.62,4h-5.47V14h5.47c4.11,0,6.23-1.87,6.23-5S248.73,4,244.62,4Z"/><path class="cls-3" d="M22.19,17.8V7.73A2.36,2.36,0,0,0,21,5.68l-8.72-5a2.39,2.39,0,0,0-2.37,0l-8.72,5A2.36,2.36,0,0,0,0,7.73V17.8a2.36,2.36,0,0,0,1.19,2.06l8.72,5a2.39,2.39,0,0,0,2.37,0l8.72-5A2.36,2.36,0,0,0,22.19,17.8Z"/></svg>